<svg xmlns="http://www.w3.org/2000/svg" viewBox="0 0 30 30"><defs><style>.cls-1{fill:#fff;}.cls-2{fill:#f2be90;}.cls-3{fill:#7d4a34;}.cls-4{fill:#5fb709;}.cls-5{fill:#1d6046;}.cls-6{fill:#ffc55f;}.cls-7{fill:#f45858;}</style></defs><title>Asset 2</title><g id="Layer_2" data-name="Layer 2"><g id="Layer_1-2" data-name="Layer 1"><circle class="cls-1" cx="15" cy="15" r="15"/><path class="cls-2" d="M7.87,11.63a3.09,3.09,0,0,0-.54,1.71H22.67a2.91,2.91,0,0,0-.55-1.71A8.91,8.91,0,0,0,7.87,11.63Z"/><path class="cls-2" d="M9.61,22.31H20.37A1.86,1.86,0,0,0,22.18,21l.49-1.64H7.33L7.82,21A1.87,1.87,0,0,0,9.61,22.31Z"/><path class="cls-3" d="M22.66,19.34H7.33a1,1,0,0,1-1-1v-.84a1,1,0,0,1,1-1H22.67a1,1,0,0,1,1,1v.84A1,1,0,0,1,22.66,19.34Z"/><path class="cls-4" d="M22.66,14.29H7.33v2.24H22.67V14.29Z"/><path class="cls-5" d="M7.33,14.29l11.53,2.24,3.81-2.24Z"/><path class="cls-6" d="M22.66,16.54l-11.54,2.8-3.79-2.8Z"/><path class="cls-7" d="M22.66,13.34H7.33v.95H22.67v-.95Z"/><path class="cls-3" d="M15.22,8.06a.91.91,0,0,1-.23,0,.83.83,0,0,1-.22,0v2.67h.45Z"/><path class="cls-7" d="M15,8.09a.89.89,0,1,0-.88-.89A.9.9,0,0,0,15,8.09Z"/><path class="cls-3" d="M14.77,6.35a.83.83,0,0,1,.22,0,.85.85,0,0,1,.23,0V5.22A.24.24,0,0,0,15,5a.23.23,0,0,0-.22.23Z"/></g></g></svg>