<svg xmlns="http://www.w3.org/2000/svg" viewBox="0 0 30 30"><defs><style>.cls-1{fill:#fff;}.cls-2{fill:#e11900;}.cls-3{fill:#afafaf;}</style></defs><title>Asset 1</title><g id="Layer_2" data-name="Layer 2"><g id="Layer_1-2" data-name="Layer 1"><circle class="cls-1" cx="15" cy="15" r="15"/><path d="M24.79,18.2A1.19,1.19,0,1,0,26,19.39,1.19,1.19,0,0,0,24.79,18.2Z"/><path class="cls-2" d="M22.8,10.78l-.11-.38a.29.29,0,0,1,0-.16l.1-.2-.14-.58L22,9.9a.19.19,0,0,0-.09.23l.23.84Z"/><path d="M24.26,16.07,22.8,10.78l-.71.19,1.45,5.29Z"/><path d="M24.58,17.22l-.72.2.27,1,.71-.19Z"/><path d="M22.85,10.06a.32.32,0,1,1,.31-.31A.31.31,0,0,1,22.85,10.06Z"/><path d="M22.85,9.45a.3.3,0,1,1-.3.3A.29.29,0,0,1,22.85,9.45Zm0,0a.33.33,0,0,0-.34.33.34.34,0,0,0,.67,0A.33.33,0,0,0,22.85,9.42Z"/><path d="M16.88,20.58a3.26,3.26,0,0,1-3.24-3.28.27.27,0,0,1,.28-.28.29.29,0,0,1,.28.28,2.68,2.68,0,1,0,2.68-2.71.29.29,0,0,1,0-.57,3.28,3.28,0,0,1,0,6.56Z"/><path class="cls-2" d="M14.2,17.3h-.56A3.26,3.26,0,0,1,16.88,14v.57A2.7,2.7,0,0,0,14.2,17.3Z"/><path class="cls-3" d="M16.88,16.2A1.11,1.11,0,1,0,18,17.3,1.1,1.1,0,0,0,16.88,16.2Z"/><path class="cls-3" d="M7.26,16.2a1.11,1.11,0,1,0,1.09,1.1A1.09,1.09,0,0,0,7.26,16.2Z"/><path class="cls-2" d="M17,17.59a.18.18,0,0,1-.1,0,.3.3,0,0,1-.28-.22l-2.15-7.7h.24a.5.5,0,0,1,.49.38l2,7.16A.3.3,0,0,1,17,17.59Z"/><path class="cls-2" d="M11.19,17.57,9.83,12.72l-.58.14,1.35,4.88a.31.31,0,0,0,.28.22H11A.31.31,0,0,0,11.19,17.57Z"/><path d="M10.5,12.29a.68.68,0,0,1,.54.27.11.11,0,0,1-.09.17h-.38a1.52,1.52,0,0,0-.8.23A1.59,1.59,0,0,1,9,13.2a.51.51,0,0,1-.5-.52.39.39,0,0,1,.39-.39Z"/><path d="M10,15.49h.65l.45,1.62-1.14,0Z"/><path class="cls-2" d="M15,10.7l3.41.52a.22.22,0,0,1,.18.29l-.66,2a.22.22,0,0,1-.22.16l-2.12-.06Z"/><path d="M13.56,10.29a.31.31,0,0,1-.31-.31.3.3,0,0,1,.31-.3h.89l.17.61Z"/><path d="M7.26,14A3.28,3.28,0,1,0,10.5,17.3,3.26,3.26,0,0,0,7.26,14Zm0,6A2.71,2.71,0,1,1,9.94,17.3,2.69,2.69,0,0,1,7.26,20Z"/><path d="M5.13,15.22l2.13,2.07h3a2.69,2.69,0,0,0-2.68-2.71H6Z"/><path class="cls-2" d="M15.7,12.36c-.24-.22-.33-.52-.53-.28l-3.84,4.74a.6.6,0,0,1-.45.21H7.28a.29.29,0,0,0,0,.57l3.86.4a1.08,1.08,0,0,0,1-.39l3.66-4.47A.59.59,0,0,0,15.7,12.36Z"/><path class="cls-3" d="M8.08,15.92H6.44v-1a.25.25,0,0,1,.25-.25H7.83a.25.25,0,0,1,.25.25Z"/><path class="cls-2" d="M24.26,16.07l-.72.19.06.23a.49.49,0,0,1-.06.41l-.83,1.35a1.85,1.85,0,0,1-1.58.89H21a3.4,3.4,0,0,1-.26.5h.36a2.38,2.38,0,0,0,2-1.12l.62-1a.3.3,0,0,1,.14-.11l.68-.18Z"/><path class="cls-2" d="M21.24,18.56a4,4,0,0,1-.29.75h.89L23,18.56Z"/></g></g></svg>